HIERARCHY
ROOT Hips
{
	OFFSET -14.64140 90.27770 -84.91600
	CHANNELS 6 Xposition Yposition Zposition Zrotation Xrotation Yrotation
	JOINT Spine
	{
		OFFSET 0.00000 13.20850 -1.60436
		CHANNELS 3 Zrotation Xrotation Yrotation
		JOINT Spine1
		{
			OFFSET 0.00000 8.61716 0.00000
			CHANNELS 3 Zrotation Xrotation Yrotation
			JOINT Spine2
			{
				OFFSET 0.00000 8.61717 0.00000
				CHANNELS 3 Zrotation Xrotation Yrotation
				JOINT Spine3
				{
					OFFSET 0.00000 8.61717 0.00000
					CHANNELS 3 Zrotation Xrotation Yrotation
					JOINT Neck
					{
						OFFSET 0.00000 11.07920 1.10792
						CHANNELS 3 Zrotation Xrotation Yrotation
						JOINT Neck1
						{
							OFFSET 0.00000 7.08032 0.00000
							CHANNELS 3 Zrotation Xrotation Yrotation
							JOINT Head
							{
								OFFSET 0.00000 7.08031 0.00000
								CHANNELS 3 Zrotation Xrotation Yrotation
								End site
								{
									OFFSET 0.00000 0.00000 0.00000
								}
							}
						}
					}
					JOINT RightShoulder
					{
						OFFSET -0.01000 7.91373 5.19711
						CHANNELS 3 Zrotation Xrotation Yrotation
						JOINT RightArm
						{
							OFFSET -18.41580 0.00000 0.00000
							CHANNELS 3 Zrotation Xrotation Yrotation
							JOINT RightForeArm
							{
								OFFSET -29.11090 0.00000 0.00000
								CHANNELS 3 Zrotation Xrotation Yrotation
								JOINT RightHand
								{
									OFFSET -24.65040 0.00000 0.00000
									CHANNELS 3 Zrotation Xrotation Yrotation
									JOINT RightHandThumb1
									{
										OFFSET -5.35114 -0.85590 3.97906
										CHANNELS 3 Zrotation Xrotation Yrotation
										JOINT RightHandThumb2
										{
											OFFSET -4.52789 0.00000 0.00000
											CHANNELS 3 Zrotation Xrotation Yrotation
											JOINT RightHandThumb3
											{
												OFFSET -2.46976 0.00000 0.00000
												CHANNELS 3 Zrotation Xrotation Yrotation
												End site
												{
													OFFSET 0.00000 0.00000 0.00000
												}
											}
										}
									}
									JOINT RightHandIndex1
									{
										OFFSET -14.26970 0.00000 2.88139
										CHANNELS 3 Zrotation Xrotation Yrotation
										JOINT RightHandIndex2
										{
											OFFSET -5.48836 0.00000 0.00000
											CHANNELS 3 Zrotation Xrotation Yrotation
											JOINT RightHandIndex3
											{
												OFFSET -3.01859 0.00000 0.00000
												CHANNELS 3 Zrotation Xrotation Yrotation
												End site
												{
													OFFSET 0.00000 0.00000 0.00000
												}
											}
										}
									}
									JOINT RightHandMiddle1
									{
										OFFSET -14.26970 0.00000 -0.09147
										CHANNELS 3 Zrotation Xrotation Yrotation
										JOINT RightHandMiddle2
										{
											OFFSET -6.17441 0.00000 0.00000
											CHANNELS 3 Zrotation Xrotation Yrotation
											JOINT RightHandMiddle3
											{
												OFFSET -3.56743 0.00000 0.00000
												CHANNELS 3 Zrotation Xrotation Yrotation
												End site
												{
													OFFSET 0.00000 0.00000 0.00000
												}
											}
										}
									}
									JOINT RightHandRing1
									{
										OFFSET -12.69180 0.00000 -3.06433
										CHANNELS 3 Zrotation Xrotation Yrotation
										JOINT RightHandRing2
										{
											OFFSET -5.62556 0.00000 0.00000
											CHANNELS 3 Zrotation Xrotation Yrotation
											JOINT RightHandRing3
											{
												OFFSET -3.56744 0.00000 0.00000
												CHANNELS 3 Zrotation Xrotation Yrotation
												End site
												{
													OFFSET 0.00000 0.00000 0.00000
												}
											}
										}
									}
									JOINT RightHandPinky1
									{
										OFFSET -11.11390 0.00000 -6.03719
										CHANNELS 3 Zrotation Xrotation Yrotation
										JOINT RightHandPinky2
										{
											OFFSET -4.52789 0.00000 0.00000
											CHANNELS 3 Zrotation Xrotation Yrotation
											JOINT RightHandPinky3
											{
												OFFSET -2.46976 0.00000 0.00000
												CHANNELS 3 Zrotation Xrotation Yrotation
												End site
												{
													OFFSET 0.00000 0.00000 0.00000
												}
											}
										}
									}
								}
							}
						}
					}
					JOINT LeftShoulder
					{
						OFFSET 0.01000 7.91373 5.19711
						CHANNELS 3 Zrotation Xrotation Yrotation
						JOINT LeftArm
						{
							OFFSET 18.41580 0.00000 0.00000
							CHANNELS 3 Zrotation Xrotation Yrotation
							JOINT LeftForeArm
							{
								OFFSET 29.11090 0.00000 0.00000
								CHANNELS 3 Zrotation Xrotation Yrotation
								JOINT LeftHand
								{
									OFFSET 24.65040 0.00000 0.00000
									CHANNELS 3 Zrotation Xrotation Yrotation
									JOINT LeftHandThumb1
									{
										OFFSET 5.35114 -0.85590 3.97906
										CHANNELS 3 Zrotation Xrotation Yrotation
										JOINT LeftHandThumb2
										{
											OFFSET 4.52789 0.00000 0.00000
											CHANNELS 3 Zrotation Xrotation Yrotation
											JOINT LeftHandThumb3
											{
												OFFSET 2.46977 0.00000 0.00000
												CHANNELS 3 Zrotation Xrotation Yrotation
												End site
												{
													OFFSET 0.00000 0.00000 0.00000
												}
											}
										}
									}
									JOINT LeftHandIndex1
									{
										OFFSET 14.26970 0.00000 2.88139
										CHANNELS 3 Zrotation Xrotation Yrotation
										JOINT LeftHandIndex2
										{
											OFFSET 5.48836 0.00000 0.00000
											CHANNELS 3 Zrotation Xrotation Yrotation
											JOINT LeftHandIndex3
											{
												OFFSET 3.01859 0.00000 0.00000
												CHANNELS 3 Zrotation Xrotation Yrotation
												End site
												{
													OFFSET 0.00000 0.00000 0.00000
												}
											}
										}
									}
									JOINT LeftHandMiddle1
									{
										OFFSET 14.26970 0.00000 -0.09147
										CHANNELS 3 Zrotation Xrotation Yrotation
										JOINT LeftHandMiddle2
										{
											OFFSET 6.17440 0.00000 0.00000
											CHANNELS 3 Zrotation Xrotation Yrotation
											JOINT LeftHandMiddle3
											{
												OFFSET 3.56744 0.00000 0.00000
												CHANNELS 3 Zrotation Xrotation Yrotation
												End site
												{
													OFFSET 0.00000 0.00000 0.00000
												}
											}
										}
									}
									JOINT LeftHandRing1
									{
										OFFSET 12.69180 0.00000 -3.06433
										CHANNELS 3 Zrotation Xrotation Yrotation
										JOINT LeftHandRing2
										{
											OFFSET 5.62556 0.00000 0.00000
											CHANNELS 3 Zrotation Xrotation Yrotation
											JOINT LeftHandRing3
											{
												OFFSET 3.56744 0.00000 0.00000
												CHANNELS 3 Zrotation Xrotation Yrotation
												End site
												{
													OFFSET 0.00000 0.00000 0.00000
												}
											}
										}
									}
									JOINT LeftHandPinky1
									{
										OFFSET 11.11390 0.00000 -6.03719
										CHANNELS 3 Zrotation Xrotation Yrotation
										JOINT LeftHandPinky2
										{
											OFFSET 4.52789 0.00000 0.00000
											CHANNELS 3 Zrotation Xrotation Yrotation
											JOINT LeftHandPinky3
											{
												OFFSET 2.46976 0.00000 0.00000
												CHANNELS 3 Zrotation Xrotation Yrotation
												End site
												{
													OFFSET 0.00000 0.00000 0.00000
												}
											}
										}
									}
								}
							}
						}
					}
					JOINT pCube4
					{
						OFFSET 0.00000 10.91090 1.10792
						CHANNELS 3 Zrotation Xrotation Yrotation
						End site
						{
							OFFSET 0.00000 0.00000 0.00000
						}
					}
				}
			}
		}
	}
	JOINT RightUpLeg
	{
		OFFSET -9.98441 0.00000 0.00000
		CHANNELS 3 Zrotation Xrotation Yrotation
		JOINT RightLeg
		{
			OFFSET 0.00000 -42.11790 0.00000
			CHANNELS 3 Zrotation Xrotation Yrotation
			JOINT RightFoot
			{
				OFFSET 0.00000 -45.00020 -0.00001
				CHANNELS 3 Zrotation Xrotation Yrotation
				JOINT RightForeFoot
				{
					OFFSET 0.00000 -3.74820 0.00000
					CHANNELS 3 Zrotation Xrotation Yrotation
					JOINT RightToeBase
					{
						OFFSET 0.00000 0.06325 14.43120
						CHANNELS 3 Zrotation Xrotation Yrotation
						End site
						{
							OFFSET 0.00000 0.00000 0.00000
						}
					}
				}
			}
		}
	}
	JOINT LeftUpLeg
	{
		OFFSET 9.98441 0.00000 0.00000
		CHANNELS 3 Zrotation Xrotation Yrotation
		JOINT LeftLeg
		{
			OFFSET 0.00000 -42.11800 0.00000
			CHANNELS 3 Zrotation Xrotation Yrotation
			JOINT LeftFoot
			{
				OFFSET 0.00000 -45.00070 0.00000
				CHANNELS 3 Zrotation Xrotation Yrotation
				JOINT LeftForeFoot
				{
					OFFSET 0.00000 -3.74824 0.00000
					CHANNELS 3 Zrotation Xrotation Yrotation
					JOINT LeftToeBase
					{
						OFFSET 0.00000 0.06325 14.43110
						CHANNELS 3 Zrotation Xrotation Yrotation
						End site
						{
							OFFSET 0.00000 0.00000 0.00000
						}
					}
				}
			}
		}
	}
}
MOTION
Frames: 4
Frame Time: 0.050000
-0.018313722334752352 -0.029391865818921614 0.047589378358786974 -0.002984723190965743 -0.02821949205329488 0.026811100872876678 1.228878952957718 3.5945258305921954 -1.486811200993373 -0.5882585520968783 3.702481332903216 0.3646960060152057 -0.8131545751692453 -1.1530918372832442 1.4853934793610928 -0.45269055063647 -0.8236693553020058 -0.35035920925911473 0.4017751525956621 11.848167753696215 -2.2116756159388933 0.16225053014721466 -1.6794540340828206 -6.925153207666259 1.1129922238930507 -17.929456919316298 -0.5892073599812112 -6.729185787842176 2.6150158875178184 -16.119916618237195 75.57975365262229 -23.140761669208214 19.20166948529155 25.3158172603437 -1.9353211494038807 86.7539825471554 11.046749246653292 -0.2804164633448587 -1.4348587807141495 4.541831787308687 -0.16257014465759745 -1.6374656214999506 -0.017245664525862296 -0.02273413422601894 -56.2207403634655 -0.016336791615398995 -0.00966191996235243 -56.229022441702355 -38.72455335394067 -0.04259838366118065 0.022728144557541862 -0.011238713120257817 -0.04084978674253135 -0.006824371147690962 0.02899117643771798 -0.004978543320231521 -0.01632316465396528 -36.66935110863331 -0.006651051912528944 -0.02711644114121651 -0.03314667758598745 -0.046804278887718286 0.015088288539894364 -0.010469627830629952 -0.011271643990002519 0.025051357574981684 -19.805829995811248 -0.00010702952340644298 -0.02713999567742833 0.030950992060952125 0.010076972732645026 -0.043862242290079304 -0.022148264229660958 0.0002032764069383599 -0.03260435716378246 24.051331314763463 0.03510217530112526 0.02783649065470461 28.816634676861163 -0.040091000236658646 0.04271487263088727 28.88020273448181 0.031802360251637095 0.028315820142726707 5.424591549049871 1.5682401143034894 14.540369201599908 -72.82624323363984 -1.5132285441891917 -10.026172372835056 11.498416421938105 -10.117896273738115 -73.17578848481904 -9.386706673625955 11.542958517904585 -10.98639766030117 -0.49491427421605544 0.04358709363680678 -8.119352411691995 0.024476073562327446 0.0010484040055286376 44.542445255277464 0.03587503363739563 -0.028806421412797243 44.60127652384556 12.445010556369873 0.0009435588397077638 0.020561486455922144 -0.021788495735726058 0.03736647667040127 -0.0026101201599934474 -0.033577274560233586 -0.01270507019523112 -0.03976344093577649 11.117006778078872 0.008434750923470838 0.029529014818231027 -0.036372373640581754 -0.016362733156708022 -0.025939993515848473 0.036715945471097335 0.042591524808698725 -0.006702233591299662 4.815774565689198 0.04550645466821605 -0.022643607114126055 0.010007661334387559 0.04907368367551565 -0.008939899249746194 -0.021681710143986437 0.0002972170594635515 -0.030998855198016272 -5.589434272597109 -0.01962416978451318 0.013528019985671116 -6.70177141311748 -4.781841631085645e-05 -0.007363606397503631 -6.69118028436033 0.012691017263939772 0.0030541928994892212 -0.03517620088630442 -0.021303839771150895 0.02656454480630575 8.04238785809307 3.4734793508564334 -19.235514060802313 -0.03933909485833988 10.415165650723667 0.057932731600974605 -5.657757434153191 -15.69264186210724 3.1462233147305914 0.04897226986975861 0.023754729244564593 0.03238466276049217 0.0031361037994507082 4.661655061627727 0.038009362083999416 12.444339261441312 -8.228338676936216 6.859936827350723 -0.03234247579968386 46.4039816662535 -0.01374385579767942 -4.344272733149612 -14.745454167226297 -3.8455503179560617 0.02361678874383819 -0.04485638082633818 0.005511635406551737 0.03533727055097737 -10.733814638690196 0.02143597711660541 
-0.008562935201973898 0.049856594934017284 -0.018833315567921848 -0.026396625879707904 0.02968140888408868 -0.029752115157560266 1.6697093100190379 3.6348146437852153 -1.5127963172840713 -0.7026151439458955 3.7242216453773374 0.3792424269723051 -0.844270729458788 -1.134217593214758 1.7310075869506352 -0.4750124966163537 -0.7804067637205621 -0.2995591189778568 0.5001570288423417 11.952286386985884 -2.308870181154545 0.15611055191505216 -1.5046477982931614 -7.223695296229871 1.159693262295552 -17.904329049682 -0.619722714537994 -7.689759424972204 2.852494736295307 -16.368298540604876 75.26798924308312 -22.98801011002794 21.784769282086007 23.068683198273998 -3.4250227967504614 89.34086435130621 9.257377777305074 -0.23053165109709148 -0.982811666023219 4.4792250376382485 -0.13291568003135087 -1.5470593287506365 -0.009459700266382046 0.00883464462284073 -56.24802261619125 0.01417578271871362 -0.024905564815286593 -56.215256791286485 -38.75302524895526 0.023508319395402075 0.03720709167213683 -0.04651418537471107 -0.046735180139604364 -0.0012152870050998162 -0.021594602060284934 -0.0403494083451975 0.000768644496793622 -36.72515808698848 0.03857940767813512 -0.035078353917275325 0.028500123852217663 -0.00753458277481963 0.006115062814876472 0.03045144754619724 -0.029029532961170928 -0.03760010405910581 -19.7626310237533 0.022235409657394508 0.02724192738085876 0.0033876521719228237 -0.03425427594588704 0.04116550218940261 0.04701922658096454 -0.02712317981171156 0.02589499604353613 24.077878791344677 -0.01369732951670065 -0.020815703390925998 28.873725084499455 0.019032103493282805 0.04845971596050448 28.87923871342248 -0.013136793902100588 0.01165124500513006 5.721824783062938 1.5989390723054244 14.678088470191982 -71.87198163587558 0.7560840732692828 -9.466461097864464 14.544434171716782 -13.847893032564443 -78.21338876686362 -7.545097889566591 9.173397911315083 -10.529083200532021 -0.4940079515596896 0.04991104151807599 -8.084676571578761 -0.012993826296098604 -0.01289559976962919 44.52011721428816 -0.012626000181595496 0.012990179779638622 44.538539362305485 12.483678191932281 -0.01596876289106445 -0.03207450500688484 0.020066547108496587 0.014022052569487511 -0.04971967029500596 -0.00010845214863375117 0.01870935596226263 0.00019576554413424442 11.151503080974853 -0.03790359257616535 0.028761841607577453 0.03694013183381476 0.04169778802786742 0.009036843370008067 -0.039864925433818504 -0.008557787826361202 0.03647644440299956 4.778204772268889 -0.04650021633588085 0.020716231972677374 -0.02653905532959437 -0.043301854135448015 -0.005825727804141538 -0.013152858667934557 0.00623120186392709 -0.032049279889053886 -5.571977956126041 -0.024771615237014648 -0.044845399411864086 -6.695936465180244 0.004479785341832003 0.038656568202459975 -6.744594155024672 0.023446052468582366 -0.04617760756349315 0.04800166505083886 0.04014256096520732 0.013562221120929823 8.052030410663795 3.5078225348285046 -19.181748468974774 -0.04381300036483598 10.347138294225124 0.05987257051967314 -5.635369646577916 -15.642741808605878 3.157842245274006 0.0276634786904415 -0.026460695110349732 0.04956120331013732 0.044537617009889764 4.70502812599683 0.023584715352680082 12.433304783400837 -8.243397409908317 6.89889590828303 0.03660587902280833 46.366661071156166 0.01117453556809499 -4.2763100693866845 -14.781033435355484 -3.8669310682415197 -0.011121537561102136 0.01950700933593293 -0.01379080535431843 -0.027927784750645095 -10.745847205416846 0.001620101857851147 
0.017840334771247822 -0.027081311878644144 -0.014361299884659704 -0.024752367620759982 0.0011848936930878174 -0.01662817960680877 1.8772012157908826 3.6825583661128634 -1.5056583912019752 -0.7541520511673618 3.7685716821688238 0.3723992224077109 -0.7954684535934334 -1.1298326357853201 1.9812718622701062 -0.5278981756313432 -0.8445060981263041 -0.28230843370000835 0.5110146081856238 12.281686304931258 -2.188959535154925 0.1321071908163117 -1.415226164024073 -7.2726999607255065 1.0944851422483979 -17.81140588505774 -0.6862894810492356 -8.710785211857488 3.0914738992428608 -16.511129518479727 75.00395988009556 -24.9356974383056 25.577898543892356 21.532478689508796 -4.671833138078424 91.2444126043035 7.808999115051973 -0.25763565990960896 -0.39324891240930154 4.548640266824977 -0.1036462396023285 -1.553392898023345 0.03573230153352168 -0.03526308732202482 -56.26286652541296 -0.009360279425015518 0.005917380825340223 -56.22549069607438 -38.74314604410955 0.03633249639192529 0.045611610359691614 0.02526414594981817 0.020833054544961198 0.00621060996345257 -0.0030958031652357034 -0.019925812806917926 -0.044649404581849544 -36.67348482214826 0.010194333814640636 -0.027638369715232786 -0.017864833956984297 -0.02054365809941367 -0.037449554952260676 0.04047140155551287 0.026510310086993408 -0.04478113891486671 -19.786194270538683 -0.04934166642555844 -0.026760179398477323 0.017142503881194277 0.04343149789386072 0.02319993465075968 -0.024278474366261085 -0.022398670788991357 -0.04983538981883739 24.03903062371018 -0.0031456174821591714 0.036037063289207166 28.87369821010407 -0.0381409076680512 -0.029260724649441294 28.901496288399688 0.029107396513200334 -0.02099482642399887 6.233176372973182 1.7151921960737955 14.78754900206097 -71.40829174258528 0.14539916023020874 -9.47802928447995 15.446421435122145 -15.0226536804546 -80.98138951440171 -6.304449052493197 8.161968831272066 -10.63473738741257 -0.48865395926127503 0.05430722374490813 -8.130570415061339 0.02524497811757199 -0.032478974611884474 44.57144641561293 -0.02304916593633198 -0.02236502784695293 44.544505110073736 12.494377558763865 -0.0006522017529618622 0.011441078932519149 0.02716611116403026 -0.031886223539349466 0.0013645684706042273 -0.022510081544867295 -0.017582926694098434 -0.012176473359013042 11.095737224034874 0.020910826436971553 0.01372187253155379 -0.01198030184739311 0.016437091031222047 0.02244436352753577 0.02731886122536797 0.0218021844019069 0.017277900681207433 4.756282354810914 -0.03456265449803674 -0.022867344222451253 -0.0038073755499661833 -0.00690631758490563 -0.029492611692297898 -0.026503932824020984 0.012008733789028427 -0.0037804166226585007 -5.5665039930233995 -0.027660100149000964 0.009996209885161011 -6.730530725604879 -0.031580918515073 0.035275999733438035 -6.7074369892916605 0.02753015632180282 -0.007762602734560471 -0.046066723090830645 -0.028280189268753676 -0.02176239121854033 8.072187026771413 3.51068669286371 -19.21042280007874 0.00044830609318562766 10.435582287951782 -0.019979087598014426 -5.620090603900672 -15.682063709439031 3.233461484307559 -0.011509278635712251 0.02687555680362092 -0.00828960357977743 0.016289990332554755 4.701563990901736 -0.04619751648064026 12.45405039423425 -8.233957415008751 6.862178430363324 0.017934224821142052 46.40186707283659 -0.03406668579346676 -4.364131325883309 -14.71722923311083 -3.8003072888136438 0.024136389739584468 -0.02088492401514221 -0.03749425863401836 -0.013769203221518846 -10.758030602128203 -0.04113708541142073 
-0.00553630009442364 -0.049289272887406255 0.04461917159035702 -0.011714653840540892 0.03405188098179073 0.0020228864192605596 2.07538990604524 3.7265100868427794 -1.5571453951102812 -0.7496825701467873 3.7247679078105285 0.3858845865331271 -0.8418589154163518 -1.218378579798493 2.2828538637767535 -0.6067901590084648 -0.8652347250874514 -0.1565268880319733 0.5358153281137833 12.523710499580691 -2.1899669377460382 0.08009331474157724 -1.3465151790340664 -7.262904182446632 1.0759031214964974 -17.7137475065932 -0.6578908540963496 -9.632203839240955 3.3384296558638002 -16.699642188455567 74.61660992620553 -27.68384959256432 29.040724281082394 20.614746855621746 -5.657429672015578 92.37673480206618 6.684250727781507 -0.22098520679997471 0.09783528775035195 4.514333761283318 -0.1145614187213079 -1.6201811570969624 0.03387795423044138 0.03218817819782511 -56.26142985545901 0.01054130169063977 -0.01398603178933846 -56.24787342920424 -38.80022364376028 -0.0165687068980025 0.022686164572339525 0.015664483503279324 -0.009403896996971523 -0.04815030308105293 -0.02200111196591198 0.019868376958715184 0.00923279983278216 -36.65576080741796 -0.009513999851592925 -0.009159282273093096 0.047472196959461095 0.017889456036014616 -0.039343438320680706 0.016788914177112813 0.0011233137807084368 0.03586345605131974 -19.714673577647286 0.03231124477979846 0.03095556476786989 0.007380237233664993 0.023360520308467744 -0.018235447624824888 0.006005320010865312 0.044938626871485185 0.03850385048485054 24.055025806976886 -0.005971334388361565 0.025989702511407767 28.846726070429778 -0.014490257065840595 0.005665199813087583 28.889280764995085 0.04576217616994089 0.020479970068663856 6.719382712107802 1.7395381431502475 15.089917523978551 -71.2181725187962 -2.0525199802459984 -9.777939418417429 14.639797637728238 -14.239929270247831 -82.79178683828155 -5.479791623540387 7.897293721457423 -11.043298688594819 -0.5215267135102206 0.04750132769302427 -8.113172782243748 0.010293984043396981 -0.006056658030457036 44.552232998249934 -0.01064178318117369 -0.0032033155910420417 44.53857158442242 12.435361622488616 -0.008727513103887289 0.007760367708398997 0.034346947861711115 -0.01923450214347059 -0.02832028424784649 -0.02888690393036273 -0.011112298920133478 -0.0227981263893689 11.057690292518284 0.048830806373557925 0.0399285004119214 0.021736061431954817 0.017932027988045527 0.008703770441931772 -0.02550995547113575 -0.02413570068284023 -0.0030579202103592595 4.786752760332074 -0.030994785484490934 -0.010342546429073719 -0.028362101747718797 0.035210163341983916 -0.028961687728731526 0.03870661589802751 -0.00791309035779185 0.004459570306572398 -5.556008539647785 0.03405100479589764 0.032642485138861525 -6.694587520969761 0.0070793955035018145 0.04338835007240773 -6.688567305280887 0.004617631923738782 -0.000270839530541719 -0.04097368325917592 0.049158506586967174 -0.011762650436813663 8.001128188568137 3.451775099445024 -19.19239279040018 0.016384559385678153 10.386787161728193 0.03145391506765871 -5.576366554844925 -15.66404059740281 3.199267028810218 -0.03062353501987123 -0.044292529405114786 -0.01290829407802445 0.01512414573197033 4.724524563470144 0.012994341155578671 12.45072787008527 -8.200658611485583 6.907484603324823 -0.04350489890308978 46.38239763392067 0.00619250795659267 -4.372973869522463 -14.712286795603859 -3.8485518901380327 -0.017041497031581185 0.012160993319140048 -0.004291333272231508 0.04683961523493942 -10.763359651248916 -0.027829633021222613 
